<?xml version="1.0" encoding="utf-8"?>
<!-- Generator: Adobe Illustrator 26.0.1, SVG Export Plug-In . SVG Version: 6.00 Build 0)  -->
<svg version="1.1" id="Layer_1" xmlns="http://www.w3.org/2000/svg" xmlns:xlink="http://www.w3.org/1999/xlink" x="0px" y="0px"
	 width="20px" height="20px" viewBox="0 0 20 20" style="enable-background:new 0 0 20 20;" xml:space="preserve">
<path d="M16.39,3.58c-0.67-0.73-1.46-1.6-2.39-2.65c-0.2-0.23-0.45-0.34-0.74-0.34H3.34c-0.71,0-0.86,0.53-0.86,0.97v17.32
	c0,0.53,0.16,0.71,0.21,0.76c0.14,0.15,0.37,0.23,0.67,0.23h12.46c0.32,0,0.55-0.08,0.69-0.25c0.12-0.15,0.19-0.4,0.19-0.75
	L16.72,4.4C16.7,4.1,16.59,3.82,16.39,3.58z M14.44,17.45H4.75V3.02l6.3,0l0.05,2.12c0,0.45,0.11,0.79,0.33,1.05
	c0.25,0.29,0.62,0.43,1.1,0.43l1.91,0.01L14.44,17.45z"/>
</svg>
