<?xml version="1.0" encoding="utf-8"?>
<!-- Generator: Adobe Illustrator 26.0.1, SVG Export Plug-In . SVG Version: 6.00 Build 0)  -->
<svg version="1.1" id="Layer_1" xmlns="http://www.w3.org/2000/svg" xmlns:xlink="http://www.w3.org/1999/xlink" x="0px" y="0px"
	 width="20px" height="20px" viewBox="0 0 20 20" style="enable-background:new 0 0 20 20;" xml:space="preserve">
<g>
	<path d="M18.59,2.33h-0.05v-1.4c0-0.33-0.26-0.59-0.59-0.59H2.05c-0.33,0-0.59,0.26-0.59,0.59v1.69H1.41V15.4h0.01l-0.01,3.62
		c0,0.25,0.04,0.42,0.11,0.51c0.07,0.1,0.21,0.14,0.44,0.14h16.1c0.2,0,0.34-0.04,0.41-0.14c0.07-0.09,0.11-0.24,0.11-0.47
		l-0.01-3.66h0.01V2.33z M11.09,12.43c-0.37,0.32-0.77,0.46-1.2,0.43c-0.43-0.03-0.8-0.23-1.12-0.58c-0.38-0.4-0.59-0.95-0.65-1.66
		H4.47V3.34h11.07v7.27h-3.69C11.79,11.4,11.54,11.99,11.09,12.43z"/>
</g>
</svg>
