<?xml version="1.0" encoding="utf-8"?>
<!-- Generator: Adobe Illustrator 26.0.1, SVG Export Plug-In . SVG Version: 6.00 Build 0)  -->
<svg version="1.1" id="Layer_1" xmlns="http://www.w3.org/2000/svg" xmlns:xlink="http://www.w3.org/1999/xlink" x="0px" y="0px"
	 width="20px" height="20px" viewBox="0 0 20 20" style="enable-background:new 0 0 20 20;" xml:space="preserve">
<path d="M19.91,7.6c-0.15-0.42-0.52-0.7-0.97-0.75L13.76,6.1l-0.28-0.04L13.35,5.8l-2.4-4.85c-0.05-0.11-0.12-0.21-0.21-0.29
	c-0.22-0.21-0.5-0.33-0.79-0.33c-0.39,0-0.8,0.27-0.99,0.64L6.59,5.79L6.47,6.05L6.19,6.09l-0.64,0.1L1.03,6.84
	C0.99,6.85,0.95,6.86,0.92,6.86c-0.39,0.1-0.68,0.35-0.82,0.7c-0.16,0.41-0.07,0.89,0.23,1.18c1.14,1.24,1.38,1.47,1.43,1.51
	c0.38,0.39,0.84,0.85,1.42,1.4l0.89,0.88l0.2,0.2l-0.05,0.28l-0.88,5.22c-0.05,0.26-0.03,0.5,0.06,0.74
	c0.11,0.27,0.36,0.51,0.63,0.61c0.11,0.04,0.23,0.06,0.36,0.06c0.18,0,0.36-0.04,0.51-0.12L9.72,17l0.25-0.13L10.22,17l4.68,2.46
	c0.26,0.14,0.5,0.21,0.72,0.21c0.25,0,0.49-0.1,0.69-0.28c0.2-0.19,0.33-0.5,0.33-0.8c0-0.06,0-0.12-0.01-0.18l-0.93-5.39
	l-0.05-0.28l0.21-0.2l2.69-2.61c0.05-0.04,0.3-0.28,1.1-1.12c0.02-0.02,0.05-0.05,0.07-0.08C19.97,8.37,20.05,7.96,19.91,7.6z
	 M13.83,11.62c-0.25,0.3-0.36,0.69-0.3,1.1l0.51,2.94l0.19,1.08l-0.97-0.51l-2.63-1.38c-0.21-0.12-0.43-0.18-0.65-0.18
	c-0.24,0-0.46,0.06-0.68,0.19l-2.62,1.37L5.7,16.75l0.18-1.08l0.51-3c0.06-0.39-0.04-0.76-0.31-1.08c-0.02-0.02-0.05-0.05-0.07-0.08
	l-1.39-1.36C4.35,9.89,4.09,9.65,3.86,9.42L3.08,8.65l1.08-0.16l1.69-0.24c0.66-0.1,1.06-0.16,1.2-0.18
	c0.48-0.05,0.87-0.33,1.13-0.8l1.29-2.63l0.49-0.98l0.49,0.98l1.28,2.58c0.21,0.47,0.62,0.8,1.07,0.84l2.95,0.43l1.09,0.16
	l-0.79,0.77l-1.73,1.68C14.06,11.37,13.91,11.52,13.83,11.62z"/>
</svg>
