<?xml version="1.0" encoding="utf-8"?>
<!-- Generator: Adobe Illustrator 26.0.1, SVG Export Plug-In . SVG Version: 6.00 Build 0)  -->
<svg version="1.1" id="Layer_1" xmlns="http://www.w3.org/2000/svg" xmlns:xlink="http://www.w3.org/1999/xlink" x="0px" y="0px"
	 width="20px" height="20px" viewBox="0 0 20 20" style="enable-background:new 0 0 20 20;" xml:space="preserve">
<g>
	<path d="M19.37,10.25c-0.14,5.03-4.34,9.12-9.37,9.12c-5.17,0-9.37-4.2-9.37-9.37c0-5.17,4.2-9.37,9.37-9.37
		c2.2,0,4.29,0.77,5.94,2.13l2.29-1.83c0.17-0.15,0.42-0.02,0.38,0.2l-0.79,4.9c-0.02,0.13-0.15,0.23-0.28,0.22L12.62,5.9
		c-0.22-0.01-0.29-0.28-0.11-0.42l2.23-1.77c-1.35-1.01-3-1.58-4.74-1.58c-4.34,0-7.87,3.53-7.87,7.87c0,4.34,3.53,7.87,7.87,7.87
		c4.23,0,7.76-3.44,7.87-7.66c0.01-0.41,0.34-0.77,0.77-0.73C19.05,9.49,19.38,9.84,19.37,10.25z"/>
</g>
</svg>
