<?xml version="1.0" encoding="utf-8"?>
<!-- Generator: Adobe Illustrator 26.0.1, SVG Export Plug-In . SVG Version: 6.00 Build 0)  -->
<svg version="1.1" id="Layer_1" xmlns="http://www.w3.org/2000/svg" xmlns:xlink="http://www.w3.org/1999/xlink" x="0px" y="0px"
	 width="20px" height="20px" viewBox="0 0 20 20" style="enable-background:new 0 0 20 20;" xml:space="preserve">
<path d="M19.13,9.27l-0.02-0.01L1.16,1.57C1.08,1.54,1,1.53,0.92,1.53c-0.06,0-0.12,0.01-0.17,0.03C0.53,1.62,0.37,1.87,0.37,2.11
	l0.19,15.57c-0.05,0.28,0,0.47,0.12,0.6c0.17,0.19,0.41,0.27,0.71,0.12c0.77-0.33,6.76-3.02,17.82-7.99
	c0.25-0.14,0.43-0.28,0.43-0.57C19.64,9.68,19.58,9.44,19.13,9.27z M14.37,10.26c-5.16,2.32-8.89,4-11.16,5.01l-0.56,0.25
	l-0.05-4.47h3.65c0.28,0,0.51-0.23,0.51-0.51V9.45c0-0.28-0.23-0.51-0.51-0.51H2.56L2.5,4.44l12.7,5.44L14.37,10.26z"/>
</svg>
