<?xml version="1.0" encoding="utf-8"?>
<!-- Generator: Adobe Illustrator 26.0.1, SVG Export Plug-In . SVG Version: 6.00 Build 0)  -->
<svg version="1.1" id="Layer_1" xmlns="http://www.w3.org/2000/svg" xmlns:xlink="http://www.w3.org/1999/xlink" x="0px" y="0px"
	 width="20px" height="20px" viewBox="0 0 20 20" style="enable-background:new 0 0 20 20;" xml:space="preserve">
<g>
	<path d="M10.47,4.24c0.23,0,0.45,0.11,0.61,0.27c0.14,0.15,0.22,0.34,0.21,0.54l-0.12,4.44l-0.01,0.25l0.19,0.16l2.78,2.25
		c0.18,0.15,0.28,0.35,0.29,0.57c0,0.22-0.09,0.43-0.27,0.58c-0.16,0.14-0.37,0.22-0.6,0.22c-0.22,0-0.42-0.07-0.58-0.2l-3.26-2.65
		c-0.19-0.15-0.29-0.38-0.29-0.61l0.14-5.05c0.01-0.21,0.09-0.4,0.25-0.54c0.16-0.15,0.38-0.23,0.61-0.23"/>
	<path d="M10,0.94c-5,0-9.06,4.06-9.06,9.06c0,4.99,4.06,9.06,9.06,9.06c4.99,0,9.06-4.06,9.06-9.06C19.06,5.01,15,0.94,10,0.94z
		 M10,17.33c-4.04,0-7.33-3.29-7.33-7.33c0-4.04,3.29-7.33,7.33-7.33c4.04,0,7.33,3.29,7.33,7.33C17.33,14.04,14.04,17.33,10,17.33z
		"/>
</g>
</svg>
